<svg xmlns="http://www.w3.org/2000/svg" viewBox="0 0 64 64" role="img" aria-labelledby="title">
  <title id="title">BetterMenu builder icon</title>
  <defs>
    <linearGradient id="shell" x1="11" y1="6" x2="53" y2="58" gradientUnits="userSpaceOnUse">
      <stop stop-color="#162633"/>
      <stop offset="1" stop-color="#0b141d"/>
    </linearGradient>
    <linearGradient id="selected" x1="15" y1="23" x2="49" y2="34" gradientUnits="userSpaceOnUse">
      <stop stop-color="#76dedb"/>
      <stop offset="1" stop-color="#43bfc3"/>
    </linearGradient>
    <linearGradient id="pencil" x1="41" y1="48" x2="53" y2="36" gradientUnits="userSpaceOnUse">
      <stop stop-color="#f5a923"/>
      <stop offset="1" stop-color="#ffd45a"/>
    </linearGradient>
  </defs>
  <rect x="7" y="5" width="50" height="54" rx="8" fill="url(#shell)"/>
  <rect x="10" y="8" width="44" height="48" rx="6" fill="none" stroke="#7fc7c0" stroke-width="2.2"/>
  <rect x="16" y="15" width="32" height="8" rx="4" fill="#20303d" stroke="#536271" stroke-width="1.2"/>
  <circle cx="22" cy="19" r="2.2" fill="#8793a0"/>
  <path d="M28 19h14" stroke="#9aa6b2" stroke-width="2" stroke-linecap="round"/>
  <rect x="14" y="26" width="36" height="9" rx="4.5" fill="url(#selected)" stroke="#a4f4ec" stroke-width="1.2"/>
  <circle cx="22" cy="30.5" r="2.4" fill="#f2fffd"/>
  <path d="M28 30.5h17" stroke="#f2fffd" stroke-width="2.2" stroke-linecap="round"/>
  <rect x="16" y="39" width="32" height="8" rx="4" fill="#20303d" stroke="#536271" stroke-width="1.2"/>
  <circle cx="22" cy="43" r="2.2" fill="#8793a0"/>
  <path d="M28 43h10" stroke="#9aa6b2" stroke-width="2" stroke-linecap="round"/>
  <g stroke="#0b141d" stroke-linejoin="round" stroke-width="1.4">
    <path d="M40.5 47.8 50.8 37.5l4.8 4.8-10.3 10.3-5.6 1.6z" fill="url(#pencil)"/>
    <path d="m50.8 37.5 1.7-1.7a2.4 2.4 0 0 1 3.4 0l1.4 1.4a2.4 2.4 0 0 1 0 3.4l-1.7 1.7z" fill="#fff1d6"/>
    <path d="m39.7 54.2 1.6-5.6 4 4z" fill="#24313f"/>
    <path d="m43 45.3 4.8 4.8" fill="none"/>
  </g>
</svg>
